<?xml version="1.0" encoding="UTF-8" standalone="no"?>
<!-- Created with Inkscape (http://www.inkscape.org/) -->

<svg
   width="793.70081"
   height="1122.5197"
   viewBox="0 0 210.00001 296.99997"
   version="1.1"
   id="svg5"
   xml:space="preserve"
   inkscape:export-filename="bceats_v3.svg"
   inkscape:export-xdpi="96"
   inkscape:export-ydpi="96"
   inkscape:version="1.2 (dc2aedaf03, 2022-05-15)"
   sodipodi:docname="bceats.svg"
   xmlns:inkscape="http://www.inkscape.org/namespaces/inkscape"
   xmlns:sodipodi="http://sodipodi.sourceforge.net/DTD/sodipodi-0.dtd"
   xmlns="http://www.w3.org/2000/svg"
   xmlns:svg="http://www.w3.org/2000/svg"><sodipodi:namedview
     id="namedview7"
     pagecolor="#ffffff"
     bordercolor="#000000"
     borderopacity="0.25"
     inkscape:showpageshadow="2"
     inkscape:pageopacity="0.0"
     inkscape:pagecheckerboard="0"
     inkscape:deskcolor="#d1d1d1"
     inkscape:document-units="mm"
     showgrid="false"
     inkscape:zoom="0.685"
     inkscape:cx="545.25547"
     inkscape:cy="418.9781"
     inkscape:window-width="1920"
     inkscape:window-height="1027"
     inkscape:window-x="1912"
     inkscape:window-y="-8"
     inkscape:window-maximized="1"
     inkscape:current-layer="layer1" /><defs
     id="defs2" /><g
     inkscape:label="Layer 1"
     inkscape:groupmode="layer"
     id="layer1"><g
       id="g1819"
       style="display:none"
       inkscape:label="hidden backup"><rect
         style="display:inline;fill:#af8754;fill-opacity:1;stroke-width:13.5467;stroke-linecap:round;stroke-linejoin:round"
         id="rect1770"
         width="264.58334"
         height="264.58334"
         x="0"
         y="0" /><text
         xml:space="preserve"
         style="font-style:normal;font-variant:normal;font-weight:900;font-stretch:normal;font-size:103.566px;font-family:Raleway;-inkscape-font-specification:'Raleway, Heavy';font-variant-ligatures:normal;font-variant-caps:normal;font-variant-numeric:normal;font-variant-east-asian:normal;text-align:center;text-anchor:middle;display:inline;fill:#b090a8;stroke-width:14.6;stroke-linecap:round;stroke-linejoin:round"
         x="129.96146"
         y="211.81819"
         id="text398"><tspan
           sodipodi:role="line"
           id="tspan396"
           style="fill:#af8754;fill-opacity:1;stroke-width:14.6"
           x="129.96146"
           y="211.81819">Eats</tspan></text><text
         xml:space="preserve"
         style="font-style:normal;font-variant:normal;font-weight:900;font-stretch:normal;font-size:103.566px;font-family:Raleway;-inkscape-font-specification:'Raleway, Heavy';font-variant-ligatures:normal;font-variant-caps:normal;font-variant-numeric:normal;font-variant-east-asian:normal;text-align:center;text-anchor:middle;display:inline;fill:#b090a8;stroke-width:14.6;stroke-linecap:round;stroke-linejoin:round"
         x="88.638702"
         y="125.57188"
         id="text186"><tspan
           sodipodi:role="line"
           id="tspan184"
           style="font-style:normal;font-variant:normal;font-weight:900;font-stretch:normal;font-size:103.566px;font-family:Raleway;-inkscape-font-specification:'Raleway, Heavy';font-variant-ligatures:normal;font-variant-caps:normal;font-variant-numeric:normal;font-variant-east-asian:normal;fill:#af8754;fill-opacity:1;stroke-width:14.6"
           x="88.638702"
           y="125.57188">BC</tspan></text></g><rect
       style="fill:#ffffff;fill-opacity:1;stroke:none;stroke-width:4;stroke-linecap:round;stroke-linejoin:round;stroke-dasharray:none;stroke-opacity:1"
       id="rect2009"
       width="234.4556"
       height="187.33272"
       x="16.222628"
       y="44.805351"
       ry="0" /><path
       id="rect1797"
       style="display:inline;fill:#000000;fill-opacity:1;stroke-width:13.5467;stroke-linecap:round;stroke-linejoin:round"
       d="M 41.582992,0 C 18.546052,0 0,18.546052 0,41.582992 V 223.00034 c 0,23.03696 18.546052,41.58299 41.582992,41.58299 H 223.00034 c 23.03696,0 41.58299,-18.54603 41.58299,-41.58299 V 41.582992 C 264.58333,18.546052 246.0373,0 223.00034,0 Z m 86.617968,51.625789 c 6.55913,0 12.28959,1.484598 17.19172,4.453475 4.90208,2.899833 8.52733,6.766237 10.87478,11.599292 l -15.43161,10.978142 c -0.6214,-1.795139 -1.44998,-3.279737 -2.48564,-4.453475 -0.96661,-1.173743 -2.03691,-2.105777 -3.21066,-2.796212 -1.17371,-0.690435 -2.4161,-1.173865 -3.72793,-1.450041 -1.31183,-0.276176 -2.52044,-0.414445 -3.6251,-0.414445 -2.55463,0 -4.76388,0.586873 -6.62802,1.760616 -1.79515,1.104699 -3.31404,2.589297 -4.55683,4.453475 -1.17375,1.795134 -2.03715,3.86661 -2.58951,6.214091 -0.55235,2.278442 -0.82837,4.5568 -0.82837,6.835242 0,2.554613 0.31084,5.005558 0.93224,7.353039 0.69044,2.347486 1.65677,4.418952 2.89957,6.214092 1.31183,1.79514 2.86559,3.24495 4.66069,4.3496 1.86419,1.03566 3.96996,1.55392 6.31745,1.55392 1.17374,0 2.38179,-0.13828 3.62458,-0.41445 1.24279,-0.34522 2.41657,-0.86295 3.52123,-1.55339 1.17375,-0.75949 2.20974,-1.69152 3.10731,-2.79622 0.96661,-1.1737 1.72606,-2.58919 2.27841,-4.246248 l 16.4667,9.838678 c -1.03566,2.69272 -2.62369,5.10937 -4.76405,7.24968 -2.07132,2.14037 -4.4531,3.93529 -7.14582,5.38521 -2.69271,1.44988 -5.55792,2.55452 -8.59586,3.31401 -3.03789,0.75943 -6.0071,1.13946 -8.90695,1.13946 -5.10921,0 -9.8042,-1.0703 -14.08493,-3.21066 -4.28068,-2.20937 -7.97451,-5.10948 -11.08149,-8.69972 -3.037921,-3.59029 -5.419727,-7.66354 -7.145817,-12.22045 -1.72609,-4.556857 -2.589506,-9.182735 -2.589506,-13.877702 0,-4.487835 0.794277,-8.906803 2.382284,-13.256555 1.588002,-4.349752 3.900651,-8.250977 6.938599,-11.703162 3.10693,-3.45218 6.8356,-6.248281 11.18536,-8.388635 4.41877,-2.140354 9.42466,-3.210657 15.01717,-3.210657 z M 25.359692,52.040234 h 42.669231 c 2.55461,0 4.867803,0.552049 6.939111,1.656747 2.071308,1.104698 3.83193,2.554473 5.281848,4.349605 1.449918,1.726088 2.554526,3.728429 3.31401,6.006869 0.828522,2.20939 1.242818,4.488274 1.242818,6.835758 0,3.452182 -0.897727,6.766023 -2.692859,9.942029 -1.726088,3.106962 -4.349617,5.454464 -7.870837,7.042464 4.211654,1.242786 7.526017,3.41771 9.942545,6.524666 2.485572,3.037918 3.727938,7.146068 3.727938,12.324308 0,3.31411 -0.690323,6.17984 -2.071191,8.59638 -1.380874,2.3475 -3.279249,4.28068 -5.695777,5.79965 -2.416522,1.51891 -5.247455,2.65787 -8.492505,3.41736 -3.176006,0.69044 -6.559498,1.03559 -10.149768,1.03559 H 25.359692 Z M 45.555359,69.23195 v 11.288717 h 13.774353 c 1.380874,0 2.62324,-0.379988 3.727938,-1.139466 1.173742,-0.759478 1.761133,-2.278388 1.761133,-4.556828 0,-2.002264 -0.483431,-3.41773 -1.450041,-4.246252 -0.96661,-0.897567 -2.106055,-1.346171 -3.417879,-1.346171 z m 0,27.030908 v 12.324312 h 15.948897 c 1.65705,0 3.038202,-0.51773 4.1429,-1.55339 1.173742,-1.03566 1.760616,-2.52025 1.760616,-4.45348 0,-1.79514 -0.483431,-3.279731 -1.450041,-4.453473 -0.96661,-1.242786 -2.209498,-1.863969 -3.728454,-1.863969 z M 25.359692,138.28613 h 51.472311 v 17.60616 H 45.555359 v 10.35699 h 26.719816 v 16.36335 H 45.555359 v 11.59929 h 32.208887 v 17.60616 H 25.359692 Z m 125.729278,1.96784 h 19.67735 v 17.08836 h 10.66757 v 14.80995 h -10.66757 v 18.02061 c 0,1.79514 0.37998,3.07232 1.13947,3.83181 0.75948,0.69042 1.79494,1.03559 3.10678,1.03559 0.96662,0 2.07122,-0.13775 3.31401,-0.41393 1.24279,-0.34522 2.48567,-0.79434 3.72846,-1.34668 l 3.52123,15.53496 c -2.76176,1.17375 -5.73042,2.17491 -8.90643,3.00344 -3.10698,0.75948 -6.1796,1.13946 -9.21753,1.13946 -2.2094,0 -4.31516,-0.27653 -6.31744,-0.82889 -2.00227,-0.55235 -3.76289,-1.44955 -5.28185,-2.69234 -1.44993,-1.24278 -2.62366,-2.86564 -3.52123,-4.86792 -0.82853,-2.00227 -1.24282,-4.4875 -1.24282,-7.45639 v -24.95972 h -6.73189 v -14.80995 h 6.73189 z m 62.03601,15.94942 c 3.65932,0 7.56,0.51773 11.70264,1.55339 4.21168,1.03566 8.49286,2.55456 12.84263,4.55683 l -7.56026,12.53153 c -3.86647,-1.79514 -7.07735,-3.07233 -9.63197,-3.83181 -2.55463,-0.82853 -5.00555,-1.24281 -7.35304,-1.24281 -1.51898,0 -2.76185,0.2417 -3.72846,0.72502 -0.89757,0.41426 -1.34617,1.10457 -1.34617,2.07119 0,0.55234 0.13775,1.03577 0.41393,1.45004 0.27617,0.34522 0.7596,0.69037 1.45004,1.03559 0.69044,0.34522 1.62247,0.72469 2.79621,1.13895 1.24279,0.34522 2.76168,0.72521 4.55683,1.13947 4.14263,1.03566 7.62954,2.14026 10.46034,3.31401 2.83081,1.1047 5.07484,2.34757 6.73189,3.72845 1.7261,1.31184 2.93415,2.83073 3.62459,4.55683 0.75948,1.65705 1.13946,3.59024 1.13946,5.79965 0,5.59256 -2.14059,10.01149 -6.42131,13.25655 -4.21168,3.24506 -9.97693,4.8674 -17.29559,4.8674 -2.27844,0 -4.72937,-0.17257 -7.35304,-0.51779 -2.62367,-0.34522 -5.21286,-0.79382 -7.76748,-1.34617 -2.48559,-0.55235 -4.9022,-1.20836 -7.24969,-1.96784 -2.3475,-0.82853 -4.38412,-1.72624 -6.11022,-2.69286 l 7.56026,-13.35991 c 3.79742,2.00227 7.42208,3.52117 10.87427,4.55683 3.4522,1.03566 6.66308,1.55339 9.63197,1.55339 3.4522,0 5.17798,-0.86289 5.17798,-2.58899 0,-0.89756 -0.69031,-1.69133 -2.07119,-2.38176 -1.38088,-0.69044 -4.00437,-1.51902 -7.87084,-2.48564 -3.86645,-1.03566 -7.11165,-2.07165 -9.73532,-3.10731 -2.62367,-1.03565 -4.72943,-2.17457 -6.31744,-3.41736 -1.58801,-1.31183 -2.72744,-2.72728 -3.41788,-4.24625 -0.69044,-1.58801 -1.0356,-3.41775 -1.0356,-5.48907 0,-2.76176 0.55257,-5.31612 1.65727,-7.66362 1.17374,-2.34749 2.79608,-4.38464 4.8674,-6.11073 2.07132,-1.7261 4.52223,-3.03759 7.35304,-3.93516 2.89984,-0.96662 6.04159,-1.45004 9.42475,-1.45004 z m -103.2552,0.10335 c 8.69952,0 15.39681,1.9332 20.0918,5.79964 4.69496,3.86647 7.04246,9.66656 7.04246,17.39946 v 10.5637 c 0,1.86416 0.34516,3.17567 1.0356,3.93516 0.69044,0.69041 1.93331,1.10473 3.72845,1.24281 v 16.57057 c -1.79514,0.34522 -3.48663,0.58693 -5.07462,0.72502 -1.58802,0.20713 -3.00347,0.31057 -4.24626,0.31057 -3.52121,0 -6.2144,-0.62119 -8.07857,-1.86396 -1.79514,-1.31184 -2.96888,-3.21071 -3.52124,-5.6963 l -0.41392,-1.96784 c -2.41654,3.10698 -5.21313,5.48929 -8.38916,7.14634 -3.176,1.58801 -6.55896,2.38176 -10.14925,2.38176 -2.6927,0 -5.21277,-0.44859 -7.56026,-1.34617 -2.347487,-0.89756 -4.384127,-2.10561 -6.110221,-3.62458 -1.65705,-1.58801 -2.969064,-3.45258 -3.935677,-5.59294 -0.966613,-2.14037 -1.450041,-4.45302 -1.450041,-6.9386 0,-2.76173 0.586871,-5.28181 1.760616,-7.56026 1.173745,-2.27845 2.796606,-4.24648 4.86792,-5.90351 2.071314,-1.65706 4.522245,-2.93424 7.35304,-3.83181 2.89984,-0.89757 6.075903,-1.34669 9.528103,-1.34669 4.41879,0 8.07777,0.69083 10.97762,2.07171 v -1.65726 c 0,-2.55463 -0.75944,-4.45351 -2.27841,-5.6963 -1.44992,-1.24279 -3.83171,-1.86397 -7.14582,-1.86397 -3.10698,0 -5.97219,0.51774 -8.595857,1.5534 -2.623663,0.96662 -5.385443,2.41638 -8.285282,4.3496 l -5.696293,-12.22044 c 7.180552,-4.62595 15.362452,-6.93911 24.545272,-6.93911 z m -0.10387,31.06994 c -2.41654,0 -4.41886,0.58687 -6.00687,1.76061 -1.58801,1.17375 -2.38177,2.65833 -2.38177,4.45348 0,1.51896 0.58688,2.76132 1.76062,3.72794 1.24279,0.96659 2.79651,1.45004 4.6607,1.45004 1.17375,0 2.3818,-0.17258 3.62458,-0.5178 1.2428,-0.41427 2.34739,-0.932 3.31401,-1.5534 0.75948,-0.55233 1.38118,-1.13921 1.86449,-1.76061 0.48331,-0.69044 0.7245,-1.38075 0.7245,-2.07119 v -4.03903 c -1.17375,-0.41427 -2.45093,-0.75943 -3.83181,-1.0356 -1.38085,-0.27617 -2.62375,-0.41444 -3.72845,-0.41444 z" /><g
       id="g1001"
       transform="matrix(0.14460044,0,0,0.14460044,166.5003,52.158432)"
       style="display:inline"><path
         id="path923"
         style="fill:none;stroke:#ffffff;stroke-width:27.6624;stroke-dasharray:none;stroke-opacity:1"
         d="m 352.17151,9.7790123e-4 c -4.522,0 -8.77618,1.75391139877 -11.97918,4.93890819877 L 324.71089,20.342704 c -3.212,3.195997 -4.98179,7.449606 -4.98179,11.975601 0,4.523996 1.76879,8.775031 4.98179,11.972028 l 15.48501,15.406392 c 3.203,3.182996 7.45618,4.938908 11.97918,4.938908 4.522,0 8.77718,-1.753912 11.97918,-4.938908 L 379.6357,44.290333 c 3.21099,-3.196997 4.98179,-7.449032 4.98179,-11.972028 0,-4.523995 -1.7698,-8.775604 -4.98179,-11.975601 L 364.15068,4.9398861 C 360.94868,1.7548893 356.6935,9.7790123e-4 352.17151,9.7790123e-4 Z M 220.55068,38.129206 c -5.12387,0 -10.25052,1.943699 -14.15201,5.825196 l -29.82286,29.67276 c -3.068,3.051997 -3.08059,8.014169 -0.0286,11.082166 l -10.83201,10.774825 -0.004,-0.0036 c -3.053,-3.067997 -8.01317,-3.079587 -11.08217,-0.02859 l -6.85085,6.818687 c -3.791,3.771 -5.88138,8.788 -5.88238,14.127 -0.001,5.33999 2.08938,10.36114 5.88238,14.13414 11.98598,11.92699 27.71926,17.88756 43.46024,17.88656 15.73699,-0.002 31.48126,-5.96043 43.46025,-17.87941 11.60499,-11.54499 17.99478,-26.9203 17.99378,-43.292284 0,-16.372983 -6.39336,-31.746293 -17.99735,-43.292281 -3.9,-3.881497 -9.02099,-5.825196 -14.14486,-5.825196 z m 95.3974,54.24222 c -18.50798,0 -33.56456,14.997924 -33.56456,33.435904 0,18.43699 15.05558,33.43234 33.56456,33.43234 18.50798,0 33.56814,-14.99535 33.56814,-33.43234 0,-18.43698 -15.05916,-33.435904 -33.56814,-33.435904 z m 0,15.674424 c 9.86599,0 17.89372,7.96749 17.89372,17.76148 0,9.79399 -8.02673,17.76149 -17.89372,17.76149 -9.86599,0 -17.89371,-7.9675 -17.89371,-17.76149 10e-4,-9.79399 8.02772,-17.76148 17.89371,-17.76148 z M 87.461038,119.76771 c -4.055996,0 -7.871664,1.57287 -10.742661,4.42787 l -12.511663,12.44733 c -2.882997,2.868 -4.470748,6.68424 -4.470748,10.74624 0,4.05999 1.586177,7.87666 4.467175,10.74266 l 12.518809,12.45091 c 2.870998,2.855 6.683092,4.42786 10.739088,4.42786 4.055996,0 7.870091,-1.57286 10.739088,-4.42786 l 12.511664,-12.45091 c 2.883,-2.867 4.46975,-6.68267 4.47075,-10.74266 0,-4.062 -1.58418,-7.87724 -4.46718,-10.74624 L 98.200126,124.19915 c -2.870997,-2.857 -6.683092,-4.43144 -10.739088,-4.43144 z m 325.735642,23.48305 c -4.05399,0 -7.86809,1.57286 -10.73908,4.42786 l -12.51524,12.44734 c -2.883,2.86799 -4.46717,6.68423 -4.46717,10.74623 10e-4,4.06 1.58617,7.87309 4.46717,10.73909 l 12.51881,12.45448 c 2.872,2.856 6.68609,4.42786 10.73909,4.42786 4.05599,0 7.86909,-1.57644 10.73909,-4.43143 l 12.51166,-12.44734 c 2.883,-2.86699 4.46975,-6.68166 4.47075,-10.74266 0,-4.062 -1.58775,-7.87724 -4.47075,-10.74623 l -12.51166,-12.44734 c -2.87,-2.857 -6.68567,-4.42786 -10.74267,-4.42786 z m -258.88884,18.89793 c -5.745,0 -11.14584,2.22892 -15.20984,6.27192 -11.60099,11.54198 -18.47717,26.54591 -19.70917,42.69189 -4.964,-2.814 -10.88746,-4.27777 -17.49346,-4.27777 -6.010992,0 -12.39402,1.17899 -19.023014,3.51299 -6.540993,-3.679 -13.889904,-5.6072 -21.488896,-5.6072 -11.771988,0 -22.83587,4.60611 -31.155862,12.9691 -14.058986,14.13099 -16.849567,35.75578 -7.297576,52.86276 -6.061994,17.46098 -4.118759,33.29733 5.439231,42.90632 0.984999,0.99 2.03904,1.89576 3.152039,2.72676 l -6.815122,6.77938 c -3.650996,3.632 -5.660803,8.46681 -5.660803,13.6088 0,0.437 0.01746,0.86885 0.04646,1.30085 -1.925998,1.11 -3.679055,2.53275 -5.164054,4.25275 -3.821996,4.42399 -5.5084177,10.26837 -4.6244186,16.03537 5.2879946,34.57196 22.8970906,66.23195 49.5820636,89.14693 16.105984,13.82899 34.919627,23.91255 55.060602,29.78355 -1.008,2.25799 -1.58316,4.75077 -1.58316,7.37977 v 9.31674 c 0,10.02899 8.16077,18.18676 18.18676,18.18676 h 245.25145 c 10.02699,0 18.18319,-8.15877 18.18319,-18.18676 v -9.31674 c 0,-2.629 -0.57259,-5.12078 -1.57959,-7.37977 9.46599,-2.754 18.65772,-6.43885 27.39271,-11.01784 3.834,-2.009 5.31113,-6.74428 3.30214,-10.57827 -0.0423,-0.0807 -0.11974,-0.12514 -0.1644,-0.2037 6.17137,-3.68527 12.0517,-7.88602 17.62926,-12.51881 0.0677,0.0789 0.0859,0.18048 0.15725,0.2573 2.94599,3.167 7.90759,3.35083 11.07859,0.40384 24.20898,-22.50098 40.27912,-52.78346 45.24712,-85.26943 0.883,-5.76899 -0.80085,-11.61495 -4.62085,-16.03894 -1.856,-2.149 -4.12644,-3.84011 -6.63643,-5.02111 2.27699,-1.273 4.35229,-2.82816 6.19329,-4.66015 9.44899,-9.39999 11.3928,-24.86756 5.4428,-41.92354 9.38799,-16.73899 6.613,-37.85615 -7.26898,-51.66913 -8.20699,-8.16399 -19.11173,-12.66176 -30.71272,-12.66176 -7.47499,0 -14.7094,1.87553 -21.14939,5.45353 -6.522,-2.271 -12.80011,-3.4165 -18.7121,-3.4165 -2.083,0 -4.0919,0.15414 -6.0289,0.44314 -2.613,-9.70799 -8.50177,-18.3985 -16.85376,-24.40149 -3.51599,-2.526 -8.41064,-1.72455 -10.93564,1.79044 -0.1749,0.24329 -0.2106,0.53095 -0.3538,0.78623 a 36.451,36.264 0 0 0 -6.93663,-2.23002 c 0.0315,-0.28565 0.16797,-0.53503 0.16797,-0.8291 0,-4.329 -3.50922,-7.83722 -7.83722,-7.83722 -14.23498,0 -26.91923,6.72282 -35.02622,17.14681 -0.941,-0.061 -1.89256,-0.10007 -2.86256,-0.10007 -1.788,0 -3.61497,0.10377 -5.47497,0.30377 1.306,-12.25599 -1.79587,-22.8413 -9.05586,-30.0623 -6.11399,-6.08199 -14.66114,-9.29887 -24.72313,-9.29887 -6.36299,0 -13.13319,1.25241 -20.17019,3.72741 -6.89299,-3.88199 -14.65238,-5.91454 -22.67537,-5.91454 -12.31299,0 -23.89067,4.77227 -32.59966,13.43726 -5.74199,5.712 -9.68404,12.6049 -11.77904,19.9379 l -36.91673,-36.72375 c -4.065,-4.045 -9.46942,-6.27549 -15.21341,-6.27549 z" /></g><g
       id="g522"
       transform="matrix(0.14460044,0,0,0.14460044,166.5003,52.158432)"
       style="display:inline"><path
         style="fill:#f9ebcf"
         d="m 144.626,258.753 c -23.492,-23.371 -23.492,-61.402 0,-84.774 5.347,-5.322 14.017,-5.322 19.365,0 l 65.845,65.505 c 5.348,5.323 5.347,13.949 0,19.268 -23.492,23.373 -61.718,23.375 -85.21,10e-4 z"
         id="path400" /><path
         style="fill:#ffcc60"
         d="m 174.644,189.391 c -10.965,10.91 -10.963,28.592 0,39.499 10.961,10.907 28.737,10.907 39.699,0 0.821,-0.817 1.56,-1.682 2.259,-2.571 l -39.376,-39.173 c -0.892,0.695 -1.763,1.43 -2.582,2.245 z"
         id="path402" /><path
         style="fill:#78b591"
         d="m 157.171,258.693 c -7.379,-7.418 -19.576,-8.478 -32.969,-4.174 4.285,-13.462 3.229,-25.722 -4.152,-33.144 -8.299,-8.34 -22.692,-8.644 -38.026,-2.311 -14.12,-9.86 -33.657,-8.473 -46.243,4.178 -12.587,12.652 -13.965,32.292 -4.158,46.488 -6.3,15.414 -6,29.883 2.3,38.227 7.38,7.419 19.578,8.479 32.971,4.173 -4.282,13.464 -3.228,25.726 4.152,33.144 7.38,7.42 19.577,8.479 32.971,4.174 -4.284,13.464 -3.228,25.724 4.155,33.145 13.736,13.808 44.151,5.623 67.933,-18.288 23.784,-23.908 31.929,-54.484 18.192,-68.289 -7.38,-7.421 -19.577,-8.483 -32.971,-4.176 4.283,-13.466 3.226,-25.726 -4.155,-33.147 z"
         id="path404" /><g
         id="g410">
	<path
   style="fill:#ef645e"
   d="m 190.06,295.415 c -13.489,26.238 -45.751,36.504 -71.92,22.879 -5.956,-3.102 -8.296,-10.458 -5.226,-16.431 l 37.801,-73.546 c 3.071,-5.975 10.389,-8.301 16.346,-5.2 26.169,13.624 36.487,46.058 22.999,72.298 z"
   id="path406" />
	<ellipse
   style="fill:#ef645e"
   cx="370.81201"
   cy="240.076"
   rx="36.451"
   ry="36.264"
   id="ellipse408" />
</g><path
         style="fill:#78b591"
         d="m 449.934,363.249 c 7.261,-7.223 8.3,-19.162 4.087,-32.273 13.176,4.195 25.176,3.16 32.437,-4.064 8.166,-8.123 8.462,-22.21 2.264,-37.22 9.648,-13.821 8.292,-32.945 -4.09,-45.264 -12.382,-12.317 -31.604,-13.667 -45.496,-4.069 -15.088,-6.166 -29.247,-5.871 -37.412,2.251 -7.262,7.224 -8.301,19.163 -4.086,32.274 -13.178,-4.193 -25.178,-3.16 -32.439,4.064 -7.261,7.224 -8.3,19.163 -4.086,32.273 -13.176,-4.193 -25.176,-3.159 -32.438,4.066 -13.515,13.446 -5.502,43.216 17.897,66.495 23.398,23.277 53.323,31.252 66.837,17.806 7.262,-7.224 8.3,-19.162 4.085,-32.273 13.178,4.192 25.178,3.158 32.44,-4.066 z"
         id="path412" /><ellipse
         style="fill:#ffab5f"
         cx="114.781"
         cy="328.62"
         rx="36.451"
         ry="36.264"
         id="ellipse414" /><path
         style="fill:#a5bc79"
         d="m 352.119,227.873 c -7.804,-7.766 -20.705,-8.875 -34.868,-4.37 4.532,-14.091 3.416,-26.925 -4.392,-34.689 -8.776,-8.731 -23.995,-9.049 -40.213,-2.42 -14.933,-10.319 -35.593,-8.868 -48.903,4.375 -13.31,13.24 -14.766,33.797 -4.396,48.654 -6.662,16.134 -6.345,31.276 2.433,40.008 7.805,7.765 20.704,8.874 34.867,4.368 -4.53,14.091 -3.414,26.926 4.391,34.69 7.805,7.765 20.705,8.875 34.869,4.369 -4.531,14.093 -3.415,26.927 4.392,34.69 14.525,14.453 46.691,5.884 71.841,-19.136 25.151,-25.025 33.765,-57.026 19.239,-71.476 -7.805,-7.767 -20.704,-8.876 -34.868,-4.37 4.53,-14.096 3.412,-26.928 -4.392,-34.693 z"
         id="path416" /><path
         style="fill:#ef645e"
         d="m 229.171,124.982 c -20.917,20.808 -54.948,20.808 -75.864,-0.001 -4.761,-4.737 -4.761,-12.417 0,-17.151 l 58.621,-58.322 c 4.763,-4.738 12.481,-4.737 17.242,0 20.915,20.808 20.917,54.665 0.001,75.474 z"
         id="path418" /><ellipse
         style="fill:#ffab5f"
         cx="315.944"
         cy="125.806"
         rx="25.73"
         ry="25.598"
         id="ellipse420" /><path
         style="fill:#c14616"
         d="m 374.108,25.898 c 3.562,3.545 3.562,9.291 0,12.838 L 358.625,54.14 c -3.563,3.544 -9.339,3.543 -12.903,0 L 330.24,38.736 c -3.563,-3.546 -3.563,-9.292 0,-12.838 l 15.482,-15.403 c 3.564,-3.544 9.34,-3.544 12.903,0 z"
         id="path422" /><path
         style="fill:#a5bc79"
         d="m 105.186,142.2 c 2.88,2.865 2.88,7.512 0,10.376 l -12.514,12.45 c -2.879,2.865 -7.547,2.863 -10.427,0 l -12.513,-12.45 c -2.88,-2.864 -2.88,-7.511 0,-10.376 l 12.514,-12.447 c 2.88,-2.865 7.548,-2.864 10.427,0 z"
         id="path424" /><g
         id="g430">
	<path
   style="fill:#c14616"
   d="m 430.925,165.683 c 2.88,2.865 2.88,7.511 0,10.375 l -12.513,12.45 c -2.879,2.865 -7.547,2.863 -10.427,0 l -12.513,-12.45 c -2.88,-2.864 -2.88,-7.51 0,-10.375 l 12.513,-12.448 c 2.881,-2.865 7.549,-2.864 10.427,0 z"
   id="path426" />
	<path
   style="fill:#c14616"
   d="m 216.984,339.322 c -20.916,20.808 -54.947,20.808 -75.864,-10e-4 -4.761,-4.736 -4.761,-12.415 0,-17.151 l 58.621,-58.322 c 4.763,-4.737 12.482,-4.735 17.242,0 20.915,20.808 20.918,54.667 0.001,75.474 z"
   id="path428" />
</g><path
         style="fill:#ef645e"
         d="m 85.265,328.545 c 4.47,4.447 4.47,11.656 0,16.104 l -19.423,19.322 c -4.47,4.447 -11.716,4.445 -16.185,0 L 30.233,344.649 c -4.469,-4.448 -4.469,-11.657 0,-16.104 l 19.423,-19.323 c 4.471,-4.449 11.715,-4.445 16.185,0 z"
         id="path432" /><g
         id="g438">
	<ellipse
   style="fill:#ffab5f"
   cx="314.20999"
   cy="299.12299"
   rx="31.298"
   ry="31.136999"
   id="ellipse434" />
	<ellipse
   style="fill:#ffab5f"
   cx="421.991"
   cy="328.95499"
   rx="25.73"
   ry="25.597"
   id="ellipse436" />
</g><path
         style="fill:#ef645e"
         d="m 382.521,321.06 c 5.35,5.323 5.35,13.953 0,19.276 l -23.25,23.13 c -5.35,5.325 -14.024,5.323 -19.375,0 l -23.249,-23.13 c -5.35,-5.324 -5.35,-13.955 0,-19.276 l 23.249,-23.132 c 5.352,-5.323 14.025,-5.321 19.375,0 z"
         id="path440" /><path
         style="fill:#ffffff"
         d="m 237.482,353.644 c -23.492,-23.372 -23.492,-61.401 0,-84.775 5.347,-5.321 14.018,-5.321 19.365,0 l 65.845,65.506 c 5.348,5.323 5.347,13.949 0,19.268 -23.492,23.372 -61.719,23.374 -85.21,0.001 z"
         id="path442" /><path
         style="fill:#ffcc60"
         d="m 267.5,284.281 c -10.964,10.909 -10.963,28.592 0,39.499 10.961,10.907 28.737,10.907 39.7,0 0.82,-0.817 1.56,-1.682 2.259,-2.573 l -39.376,-39.172 c -0.894,0.697 -1.763,1.431 -2.583,2.246 z"
         id="path444" /><path
         style="fill:#f9ebcf"
         d="m 155.641,475.257 c -33.667,0 -66.216,-12.029 -91.65,-33.869 -25.266,-21.696 -41.936,-51.663 -46.941,-84.386 -0.536,-3.494 0.49,-7.048 2.806,-9.73 2.317,-2.682 5.693,-4.225 9.246,-4.225 h 448.144 c 3.554,0 6.93,1.542 9.246,4.225 2.316,2.681 3.341,6.236 2.806,9.73 -5.005,32.722 -21.675,62.69 -46.941,84.386 -25.434,21.84 -57.985,33.869 -91.651,33.869 z"
         id="path446" /><path
         style="opacity:0.1;enable-background:new"
         d="m 60.802,357.002 c -0.536,-3.494 0.49,-7.048 2.806,-9.73 2.317,-2.682 5.693,-4.225 9.246,-4.225 H 29.103 c -3.554,0 -6.93,1.542 -9.246,4.225 -2.317,2.681 -3.342,6.236 -2.806,9.73 5.005,32.722 21.675,62.69 46.941,84.386 25.434,21.84 57.983,33.869 91.65,33.869 h 43.752 c -33.667,0 -66.216,-12.029 -91.65,-33.869 C 82.478,419.692 65.807,389.724 60.802,357.002 Z"
         id="path448" /><g
         id="g454">
	<path
   style="fill:#ddb690"
   d="M 136.22,369.189 H 22.671 c -1.075,0 -2.098,0.217 -3.03,0.61 1.285,5.107 2.862,10.125 4.712,15.032 H 136.22 c 4.32,0 7.821,-3.502 7.821,-7.82 0,-4.32 -3.501,-7.822 -7.821,-7.822 z"
   id="path450" />
	<path
   style="fill:#ddb690"
   d="M 109.439,405.576 H 39.696 c -1.721,0 -3.308,0.563 -4.6,1.506 2.927,4.895 6.149,9.619 9.666,14.135 h 64.675 c 4.319,0 7.82,-3.5 7.82,-7.82 0.002,-4.318 -3.499,-7.821 -7.818,-7.821 z"
   id="path452" />
</g><path
         style="fill:#a5bc79"
         d="m 386.148,493.812 c 0,5.717 -4.633,10.351 -10.348,10.351 H 130.548 c -5.715,0 -10.348,-4.634 -10.348,-10.351 v -9.315 c 0,-5.717 4.633,-10.351 10.348,-10.351 H 375.8 c 5.715,0 10.348,4.635 10.348,10.351 z"
         id="path456" /><path
         style="opacity:0.1;enable-background:new"
         d="m 163.797,493.812 v -9.315 c 0,-5.717 4.633,-10.351 10.348,-10.351 h -43.596 c -5.715,0 -10.348,4.635 -10.348,10.351 v 9.315 c 0,5.717 4.633,10.351 10.348,10.351 h 43.596 c -5.715,0 -10.348,-4.634 -10.348,-10.351 z"
         id="path458" /><path
         d="m 315.949,159.241 c 18.508,0 33.567,-14.998 33.567,-33.435 0,-18.437 -15.058,-33.436 -33.567,-33.436 -18.508,0 -33.566,14.998 -33.566,33.436 0,18.437 15.057,33.435 33.566,33.435 z m 0,-51.196 c 9.866,0 17.894,7.968 17.894,17.762 0,9.794 -8.027,17.761 -17.894,17.761 -9.866,0 -17.893,-7.967 -17.893,-17.761 0.001,-9.794 8.027,-17.762 17.893,-17.762 z"
         id="path460" /><path
         d="m 340.197,59.698 c 3.203,3.183 7.455,4.936 11.978,4.936 4.522,0 8.776,-1.753 11.978,-4.938 l 15.484,-15.405 c 3.211,-3.197 4.98,-7.449 4.98,-11.972 0,-4.524 -1.769,-8.776 -4.981,-11.976 L 364.151,4.939 C 360.949,1.754 356.695,0 352.173,0 c -4.522,0 -8.776,1.754 -11.979,4.939 l -15.483,15.404 c -3.212,3.196 -4.981,7.449 -4.981,11.975 0,4.524 1.769,8.776 4.982,11.973 z m -4.431,-28.244 15.481,-15.402 c 0.313,-0.312 0.676,-0.377 0.925,-0.377 0.249,0 0.611,0.066 0.925,0.377 l 15.481,15.401 c 0.301,0.299 0.364,0.635 0.364,0.865 0,0.229 -0.064,0.565 -0.363,0.863 l -15.482,15.403 c -0.313,0.311 -0.675,0.376 -0.924,0.376 -0.25,0 -0.612,-0.066 -0.925,-0.375 L 335.767,33.181 c -0.301,-0.299 -0.364,-0.634 -0.364,-0.863 10e-4,-0.23 0.064,-0.566 0.363,-0.864 z"
         id="path462" /><path
         d="m 76.721,170.583 c 2.871,2.855 6.685,4.427 10.741,4.427 4.056,0 7.87,-1.574 10.739,-4.429 l 12.512,-12.448 c 2.883,-2.867 4.47,-6.683 4.471,-10.743 0,-4.062 -1.587,-7.877 -4.47,-10.746 L 98.201,124.198 c -2.871,-2.857 -6.685,-4.43 -10.741,-4.43 -4.056,0 -7.87,1.574 -10.741,4.429 l -12.514,12.447 c -2.883,2.868 -4.47,6.684 -4.47,10.746 0,4.06 1.588,7.875 4.469,10.741 z M 87.46,135.62 99.289,147.388 87.459,159.159 75.63,147.388 Z"
         id="path464" /><path
         d="m 402.46,194.066 c 2.872,2.856 6.686,4.426 10.739,4.426 4.056,0 7.87,-1.574 10.74,-4.429 l 12.512,-12.448 c 2.883,-2.867 4.47,-6.682 4.471,-10.743 0,-4.062 -1.587,-7.876 -4.47,-10.745 L 423.939,147.68 c -2.87,-2.857 -6.685,-4.43 -10.742,-4.43 -4.054,0 -7.869,1.574 -10.74,4.429 l -12.513,12.448 c -2.883,2.868 -4.47,6.683 -4.47,10.745 0.001,4.06 1.588,7.875 4.469,10.741 z m 10.738,-34.963 11.829,11.769 -11.829,11.77 -11.829,-11.77 z"
         id="path466" /><path
         d="m 164.474,275.848 1.078,0.56 c 1.155,0.6 2.391,0.885 3.607,0.885 2.832,0 5.565,-1.54 6.961,-4.226 1.996,-3.84 0.501,-8.571 -3.341,-10.567 l -1.078,-0.56 c -3.843,-1.996 -8.572,-0.499 -10.568,3.341 -1.994,3.84 -0.499,8.571 3.341,10.567 z"
         id="path468" /><path
         d="m 191.24,148.418 c 15.737,-0.002 31.479,-5.961 43.458,-17.88 11.605,-11.545 17.996,-26.92 17.995,-43.292 0,-16.373 -6.392,-31.747 -17.996,-43.293 -7.8,-7.763 -20.494,-7.763 -28.297,0 l -29.825,29.674 c -3.068,3.052 -3.08,8.014 -0.028,11.082 3.052,3.068 8.014,3.079 11.083,0.027 l 29.823,-29.673 c 1.706,-1.698 4.482,-1.698 6.188,0 1.407,1.4 2.7,2.883 3.897,4.424 -4.813,1.284 -8.082,6.945 -5.991,11.623 1.156,2.587 3.696,4.383 6.52,4.611 2.644,0.213 4.836,-0.936 6.66,-2.752 1.499,4.545 2.291,9.347 2.291,14.275 0,12.169 -4.75,23.598 -13.376,32.18 -12.461,12.398 -30.369,16.137 -46.128,11.243 3.106,-3.911 1.534,-8.989 -2.116,-11.849 -4.389,-3.439 -11.097,-1.259 -12.476,4.203 -1.415,-1.108 -2.785,-2.299 -4.09,-3.597 -0.813,-0.809 -1.261,-1.883 -1.261,-3.022 0.001,-1.139 0.448,-2.21 1.261,-3.019 l 6.853,-6.818 c 3.068,-3.053 3.081,-8.015 0.028,-11.084 -3.053,-3.068 -8.014,-3.079 -11.083,-0.028 l -6.853,6.818 c -3.791,3.771 -5.88,8.789 -5.881,14.128 -10e-4,5.34 2.088,10.36 5.881,14.133 11.986,11.927 27.722,17.887 43.463,17.886 15.736,-0.002 -15.741,0.001 0,0 15.736,-0.002 -15.741,0.001 0,0 z"
         id="path470" /><path
         d="m 195.513,121.633 c 2.014,0 4.027,-0.771 5.558,-2.312 3.051,-3.07 3.036,-8.031 -0.032,-11.082 l -0.862,-0.857 c -3.07,-3.05 -8.032,-3.035 -11.082,0.033 -3.051,3.07 -3.036,8.031 0.032,11.083 l 0.862,0.857 c 1.528,1.52 3.526,2.278 5.524,2.278 z"
         id="path472" /><path
         d="m 217.065,101.908 c 2.01,0 4.021,-0.768 5.552,-2.305 3.055,-3.066 3.046,-8.028 -0.02,-11.082 l -0.862,-0.859 c -3.066,-3.056 -8.029,-3.047 -11.082,0.02 -3.055,3.067 -3.046,8.028 0.02,11.082 l 0.862,0.859 c 1.528,1.524 3.529,2.285 5.53,2.285 z"
         id="path474" /><path
         d="m 490.158,238.872 c -8.207,-8.164 -19.114,-12.659 -30.715,-12.659 -7.475,0 -14.708,1.875 -21.148,5.453 -6.522,-2.271 -12.8,-3.418 -18.712,-3.418 -2.083,0 -4.092,0.155 -6.029,0.444 -2.613,-9.708 -8.501,-18.399 -16.853,-24.402 -3.516,-2.526 -8.412,-1.724 -10.937,1.791 -2.527,3.515 -1.724,8.411 1.79,10.938 5.947,4.274 9.968,10.648 11.34,17.685 -0.945,0.727 -1.849,1.506 -2.698,2.351 -4.724,4.7 -7.573,10.905 -8.501,18.077 -4.572,-2.014 -9.8,-3.054 -15.52,-3.054 -1.788,0 -3.614,0.101 -5.475,0.301 1.305,-12.254 -1.797,-22.839 -9.055,-30.061 -1.556,-1.548 -3.271,-2.908 -5.127,-4.078 4.963,-4.112 11.336,-6.595 18.288,-6.595 4.328,0 7.837,-3.508 7.837,-7.837 0,-4.329 -3.509,-7.837 -7.837,-7.837 -14.235,0 -26.921,6.723 -35.028,17.147 -0.941,-0.061 -1.893,-0.099 -2.863,-0.099 -1.788,0 -3.613,0.101 -5.473,0.301 1.306,-12.256 -1.796,-22.84 -9.056,-30.061 -6.114,-6.082 -14.663,-9.298 -24.725,-9.298 -6.363,0 -13.132,1.253 -20.169,3.728 -6.893,-3.882 -14.652,-5.916 -22.675,-5.916 -12.313,0 -23.892,4.773 -32.601,13.438 -5.742,5.712 -9.684,12.605 -11.779,19.938 L 169.52,168.423 c -4.065,-4.045 -9.467,-6.273 -15.211,-6.273 -5.745,0 -11.146,2.228 -15.21,6.271 -11.601,11.542 -18.477,26.544 -19.709,42.69 -4.964,-2.814 -10.889,-4.278 -17.495,-4.278 -6.011,0 -12.395,1.181 -19.024,3.515 -6.541,-3.679 -13.89,-5.606 -21.489,-5.606 -11.772,0 -22.836,4.606 -31.156,12.969 -14.059,14.131 -16.849,35.753 -7.297,52.86 -6.062,17.461 -4.119,33.299 5.439,42.908 0.985,0.99 2.042,1.895 3.155,2.726 l -6.816,6.78 c -3.651,3.632 -5.661,8.465 -5.661,13.607 0,0.437 0.017,0.869 0.046,1.301 -1.926,1.11 -3.68,2.533 -5.165,4.253 -3.822,4.424 -5.506,10.27 -4.622,16.037 5.288,34.572 22.897,66.232 49.582,89.147 16.106,13.829 34.917,23.911 55.058,29.782 -1.008,2.258 -1.581,4.752 -1.581,7.381 v 9.315 c 0,10.029 8.158,18.188 18.184,18.188 H 375.8 c 10.027,0 18.184,-8.16 18.184,-18.188 v -9.315 c 0,-2.629 -0.573,-5.122 -1.58,-7.381 9.466,-2.754 18.659,-6.437 27.394,-11.016 3.834,-2.009 5.312,-6.746 3.303,-10.58 -2.009,-3.833 -6.747,-5.313 -10.58,-3.302 -13.939,7.306 -29.175,12.072 -44.79,14.091 H 138.499 C 106.329,462.136 74.147,445.682 53.937,419.925 41.69,404.316 33.793,387.93 27.576,369.185 c -1.154,-4.393 -2.088,-8.854 -2.779,-13.375 -0.397,-2.589 1.716,-4.93 4.306,-4.93 h 448.144 c 2.593,0 4.702,2.342 4.306,4.933 -4.438,29.008 -18.794,56.057 -40.425,76.163 -3.17,2.946 -3.351,7.905 -0.405,11.076 2.946,3.167 7.905,3.351 11.076,0.404 24.209,-22.501 40.279,-52.785 45.247,-85.271 0.883,-5.769 -0.801,-11.613 -4.621,-16.037 -1.856,-2.149 -4.125,-3.842 -6.635,-5.023 2.277,-1.273 4.352,-2.827 6.193,-4.659 9.449,-9.4 11.394,-24.869 5.444,-41.925 9.388,-16.739 6.613,-37.856 -7.269,-51.669 -8.206,-8.163 13.882,13.813 0,0 z M 128.037,484.497 c 0,-1.387 1.126,-2.514 2.511,-2.514 H 375.8 c 1.384,0 2.511,1.127 2.511,2.514 v 9.315 c 0,1.387 -1.126,2.514 -2.511,2.514 H 130.548 c -1.384,0 -2.511,-1.127 -2.511,-2.514 z m 82.27,-243.245 c -1.297,3.845 -2.214,7.607 -2.754,11.244 -2.151,0.09 -4.242,0.508 -6.213,1.242 -0.891,-3.081 -2.028,-6.091 -3.383,-9.003 4.336,-0.412 8.504,-1.599 12.35,-3.483 z m -32.908,-42.878 27.904,27.76 c -3.204,2.019 -6.923,3.099 -10.812,3.099 -10.447,0 -20.235,-9.621 -20.235,-20.092 0.001,-3.873 1.097,-7.579 3.143,-10.767 z m -27.244,-18.84 c 1.108,-1.102 2.583,-1.709 4.155,-1.709 1.572,0 3.046,0.607 4.156,1.71 l 7.688,7.649 c -4.902,6.252 -7.569,13.897 -7.569,21.956 0,1.666 0.116,3.313 0.342,4.935 -6.467,0.824 -12.141,4.747 -15.179,10.659 l -5.38,10.469 c -2.306,-5.925 -3.522,-12.284 -3.522,-18.836 -0.002,-13.931 5.434,-27.01 15.309,-36.833 z M 35.006,335.212 c 0.157,-0.367 0.392,-0.75 0.755,-1.111 l 19.423,-19.323 c 0.922,-0.916 2.001,-1.053 2.564,-1.053 0.563,0 1.645,0.137 2.567,1.054 l 19.423,19.323 c 0.363,0.361 0.599,0.744 0.755,1.111 H 35.006 Z m 40.671,-27.26 -4.31,-4.287 c -3.641,-3.621 -8.478,-5.614 -13.62,-5.614 -5.142,0 -9.979,1.994 -13.618,5.616 l -1.226,1.219 c -1.288,-0.657 -2.44,-1.467 -3.424,-2.458 -5.66,-5.691 -5.885,-16.807 -0.602,-29.735 1.001,-2.451 0.699,-5.242 -0.807,-7.42 -7.849,-11.361 -6.476,-26.715 3.265,-36.508 5.356,-5.383 12.475,-8.349 20.045,-8.349 5.819,0 11.406,1.753 16.155,5.071 2.19,1.53 5.009,1.838 7.478,0.817 6.015,-2.484 11.852,-3.797 16.88,-3.797 5.46,0 9.699,1.477 12.597,4.392 4.947,4.974 5.764,14.173 2.241,25.241 -0.89,2.796 -0.143,5.855 1.934,7.926 1.543,1.538 3.629,2.336 5.745,2.281 l -11.411,22.203 c -1.599,0.064 -3.167,0.235 -4.719,0.463 L 69.221,245.748 c -3.052,-3.068 -8.013,-3.08 -11.083,-0.029 -3.069,3.053 -3.081,8.014 -0.029,11.082 L 91.98,290.85 c -6.859,4.128 -12.523,10.037 -16.303,17.102 z m 59.917,8.663 c -3.792,3.772 -5.881,8.791 -5.881,14.131 0,1.523 0.186,3.017 0.519,4.465 H 96.386 c -0.328,-4.619 -2.274,-8.918 -5.594,-12.222 l -3.206,-3.19 c 3.744,-11.372 14.518,-19.611 27.198,-19.611 10.12,0 19.007,5.26 24.093,13.159 z m -6.227,-29.619 28.318,-55.096 c 1.068,-2.076 3.682,-2.911 5.756,-1.832 1.806,0.939 3.517,1.991 5.142,3.129 -4.126,2.614 -5.585,8.876 -2.368,12.722 3.801,4.543 10.807,3.162 13.245,-1.964 4.422,6.163 7.243,13.333 8.254,20.802 l -26.236,26.102 c -1.934,-3.268 -6.535,-5.193 -10.177,-4.042 -4.808,1.52 -6.953,7.383 -4.255,11.658 -4.832,-5.13 -10.876,-9.106 -17.679,-11.479 z m 57.316,48.216 c 8.044,-3.812 3.911,-15.778 -4.237,-15.757 -9.267,0.023 -9.881,12.248 -2.476,15.757 h -14.715 c -0.428,-0.527 -0.91,-1.015 -1.402,-1.482 -3.07,-3.05 -8.032,-3.035 -11.082,0.033 -1.049,1.056 -0.787,1.181 -2.008,1.448 -0.563,0.123 -1.951,0.188 -2.505,0 -2.945,-0.999 -3.669,-5.436 -1.608,-7.486 l 58.62,-58.321 c 1.683,-1.675 4.505,-1.676 6.188,0 1.407,1.4 2.701,2.882 3.897,4.423 -3.229,0.861 -6.172,4.088 -6.606,7.406 -0.55,4.211 2.471,8.189 6.687,8.772 -1.675,5.077 -2.745,10.371 -3.174,15.798 -2.723,-7.722 -15.118,-8.205 -16.032,0.971 -0.855,8.565 11.976,13.43 15.803,4.821 0.04,8.2 1.53,16.169 4.347,23.617 h -29.696 v 0 z m 46.863,0 c -3.812,-7.308 -5.846,-15.47 -5.846,-23.954 0,-13.928 5.437,-27.01 15.31,-36.833 1.108,-1.102 2.583,-1.708 4.156,-1.708 1.572,0 3.047,0.606 4.156,1.709 l 7.689,7.65 c -4.903,6.251 -7.569,13.897 -7.569,21.956 0,9.56 3.741,18.547 10.532,25.304 2.346,2.333 4.963,4.295 7.775,5.875 h -36.203 z m 53.803,-11.089 c -5.414,0 -10.499,-2.095 -14.322,-5.898 -3.813,-3.794 -5.913,-8.835 -5.913,-14.194 0,-3.872 1.096,-7.579 3.142,-10.769 l 27.904,27.761 c -3.203,2.02 -6.922,3.1 -10.811,3.1 z m 17.602,11.089 c 1.557,-0.875 3.052,-1.869 4.475,-2.979 l 2.995,2.979 z m -13.232,-42.705 c 2.879,-9.635 11.87,-16.685 22.492,-16.685 9.99,0 18.536,6.238 21.914,14.995 -0.607,0.486 -1.196,1 -1.755,1.556 l -21.391,21.282 z m 85.275,42.273 -0.434,0.432 h -43.92 c -1.054,-2.351 -2.535,-4.516 -4.42,-6.392 l -4.132,-4.11 21.334,-21.226 c 2.263,-2.252 6.057,-2.253 8.322,-0.002 l 23.25,23.133 c 2.237,2.225 2.237,5.939 0,8.165 z m 6.319,-23.987 -18.516,-18.422 c -3.704,-3.684 -8.523,-5.84 -13.693,-6.198 -5.372,-15.142 -19.873,-26.025 -36.893,-26.025 -2.972,0 -5.865,0.339 -8.648,0.967 l -46.801,-46.562 c -3.069,-3.053 -8.03,-3.04 -11.082,0.027 -3.052,3.069 -3.04,8.031 0.028,11.082 l 42.737,42.519 c -4.376,3.344 -8.018,7.591 -10.659,12.453 l -4.177,-4.156 c -0.002,-0.002 -0.004,-0.004 -0.006,-0.006 l -13.228,-13.158 c -4.065,-4.045 -9.467,-6.271 -15.21,-6.271 -5.744,0 -11.146,2.227 -15.21,6.271 -0.947,0.941 -1.852,1.913 -2.736,2.9 -1.964,-2.755 -4.163,-5.373 -6.605,-7.814 0.28,-4.803 1.595,-10.223 3.975,-15.988 1.02,-2.468 0.712,-5.287 -0.817,-7.476 -8.387,-12.014 -6.916,-28.253 3.497,-38.612 5.753,-5.725 13.405,-8.876 21.547,-8.876 6.26,0 12.267,1.865 17.375,5.394 2.179,1.505 4.97,1.81 7.42,0.807 6.424,-2.626 12.665,-4.013 18.051,-4.013 5.913,0 10.513,1.592 13.671,4.735 5.323,5.294 6.219,15.038 2.458,26.734 -0.899,2.793 -0.161,5.854 1.91,7.932 2.071,2.077 5.129,2.825 7.926,1.936 4.753,-1.513 9.224,-2.28 13.289,-2.28 5.916,0 10.518,1.593 13.676,4.735 5.322,5.296 6.218,15.04 2.458,26.736 -0.898,2.794 -0.161,5.855 1.911,7.932 2.07,2.077 5.13,2.827 7.926,1.935 4.754,-1.512 9.225,-2.28 13.29,-2.28 5.915,0 10.516,1.593 13.676,4.738 3.15,3.134 4.748,7.694 4.748,13.554 -10e-4,7.53 -2.62,16.131 -7.288,24.75 z m 55.414,24.419 h -33.473 c -0.745,-1.946 -1.156,-4.054 -1.156,-6.257 0,-9.794 8.027,-17.762 17.893,-17.762 9.866,0 17.893,7.968 17.893,17.762 -0.001,2.202 -0.413,4.31 -1.157,6.257 z m 43.567,-50.005 c -1.529,2.19 -1.837,5.007 -0.818,7.475 5.155,12.487 4.95,23.206 -0.549,28.675 -2.833,2.817 -6.982,4.246 -12.335,4.246 -3.725,0 -7.828,-0.705 -12.196,-2.096 -0.443,-0.142 -0.893,-0.228 -1.345,-0.287 -1.679,-9.638 -7.508,-17.874 -15.588,-22.803 l 23.255,-23.137 c 3.068,-3.052 3.081,-8.014 0.028,-11.082 -3.054,-3.068 -8.015,-3.081 -11.082,-0.027 l -29.502,29.351 c -0.059,0 -0.116,-0.004 -0.174,-0.004 -6.51,0 -12.588,1.861 -17.739,5.07 1.324,-4.978 2.023,-9.865 2.022,-14.546 0,-3.27 -0.722,-12.15 -1.174,-13.557 -3.435,-10.679 -2.65,-19.542 2.151,-24.318 2.832,-2.817 6.981,-4.246 12.333,-4.246 4.939,0 10.675,1.278 16.587,3.693 2.45,1.003 5.241,0.698 7.42,-0.807 4.658,-3.218 10.141,-4.92 15.853,-4.92 7.429,0 14.411,2.876 19.66,8.097 9.501,9.451 10.844,24.264 3.193,35.223 z"
         id="path476"
         style="display:inline;fill:#000000" /></g></g></svg>
